HIERARCHY
ROOT Hips
{
    OFFSET   0.000000   0.000000   0.000000
    CHANNELS 6 Xposition Yposition Zposition Zrotation Xrotation Yrotation
    JOINT Chest
    {
        OFFSET   0.000000   8.007230   0.000000
        CHANNELS 3 Zrotation Xrotation Yrotation
        JOINT Chest2
        {
            OFFSET   0.000000  22.077100   0.000000
            CHANNELS 3 Zrotation Xrotation Yrotation
            JOINT Neck
            {
                OFFSET   0.000000  23.255100   0.000000
                CHANNELS 3 Zrotation Xrotation Yrotation
                JOINT Head
                {
                    OFFSET   0.000000  14.370100   1.956600
                    CHANNELS 3 Zrotation Xrotation Yrotation
                    End Site
                    {
                        OFFSET   0.000000  19.566000   0.000000
                    }
                }
            }
            JOINT LeftCollar
            {
                OFFSET   3.911900  19.017000  -0.467063
                CHANNELS 3 Zrotation Xrotation Yrotation
                JOINT LeftShoulder
                {
                    OFFSET  10.383700   0.000000   0.000000
                    CHANNELS 3 Zrotation Xrotation Yrotation
                    JOINT LeftElbow
                    {
                        OFFSET  26.662100   0.001193   0.000980
                        CHANNELS 3 Zrotation Xrotation Yrotation
                        JOINT LeftWrist
                        {
                            OFFSET  28.869000  -0.000059  -0.000082
                            CHANNELS 3 Zrotation Xrotation Yrotation
                            JOINT LeftFinger0
                            {
                                OFFSET   2.044650  -2.323450   3.252850
                                CHANNELS 3 Zrotation Xrotation Yrotation
                                JOINT LeftFinger01
                                {
                                    OFFSET   3.088130   0.000000   0.000000
                                    CHANNELS 3 Zrotation Xrotation Yrotation
                                    JOINT LeftFinger02
                                    {
                                        OFFSET   2.639460   0.000000   0.000000
                                        CHANNELS 3 Zrotation Xrotation Yrotation
                                        End Site
                                        {
                                            OFFSET   2.582190   0.000000   0.000000
                                        }
                                    }
                                }
                            }
                            JOINT LeftFinger1
                            {
                                OFFSET   8.364480   0.000000   3.252850
                                CHANNELS 3 Zrotation Xrotation Yrotation
                                JOINT LeftFinger11
                                {
                                    OFFSET   4.646930   0.000000   0.000000
                                    CHANNELS 3 Zrotation Xrotation Yrotation
                                    JOINT LeftFinger12
                                    {
                                        OFFSET   2.323470   0.000000   0.000000
                                        CHANNELS 3 Zrotation Xrotation Yrotation
                                        End Site
                                        {
                                            OFFSET   2.273050   0.000000   0.000000
                                        }
                                    }
                                }
                            }
                            JOINT LeftFinger2
                            {
                                OFFSET   8.364490   0.000016   1.078090
                                CHANNELS 3 Zrotation Xrotation Yrotation
                                JOINT LeftFinger21
                                {
                                    OFFSET   5.111610   0.000000   0.000000
                                    CHANNELS 3 Zrotation Xrotation Yrotation
                                    JOINT LeftFinger22
                                    {
                                        OFFSET   2.788150   0.000016   0.000000
                                        CHANNELS 3 Zrotation Xrotation Yrotation
                                        End Site
                                        {
                                            OFFSET   2.727660   0.000000   0.000000
                                        }
                                    }
                                }
                            }
                            JOINT LeftFinger3
                            {
                                OFFSET   7.899780   0.000015  -1.078090
                                CHANNELS 3 Zrotation Xrotation Yrotation
                                JOINT LeftFinger31
                                {
                                    OFFSET   4.646930   0.000000   0.000000
                                    CHANNELS 3 Zrotation Xrotation Yrotation
                                    JOINT LeftFinger32
                                    {
                                        OFFSET   2.323470   0.000000   0.000000
                                        CHANNELS 3 Zrotation Xrotation Yrotation
                                        End Site
                                        {
                                            OFFSET   2.273050   0.000000   0.000000
                                        }
                                    }
                                }
                            }
                            JOINT LeftFinger4
                            {
                                OFFSET   7.435090   0.000000  -3.252850
                                CHANNELS 3 Zrotation Xrotation Yrotation
                                JOINT LeftFinger41
                                {
                                    OFFSET   3.717550   0.000000   0.000000
                                    CHANNELS 3 Zrotation Xrotation Yrotation
                                    JOINT LeftFinger42
                                    {
                                        OFFSET   1.858770   0.000000   0.000000
                                        CHANNELS 3 Zrotation Xrotation Yrotation
                                        End Site
                                        {
                                            OFFSET   1.818440   0.000000   0.000000
                                        }
                                    }
                                }
                            }
                        }
                    }
                }
            }
            JOINT RightCollar
            {
                OFFSET  -3.911910  19.017000  -0.467062
                CHANNELS 3 Zrotation Xrotation Yrotation
                JOINT RightShoulder
                {
                    OFFSET -10.383700   0.000014   0.000000
                    CHANNELS 3 Zrotation Xrotation Yrotation
                    JOINT RightElbow
                    {
                        OFFSET -26.662100   0.001225   0.001091
                        CHANNELS 3 Zrotation Xrotation Yrotation
                        JOINT RightWrist
                        {
                            OFFSET -28.869000  -0.000020  -0.000085
                            CHANNELS 3 Zrotation Xrotation Yrotation
                            JOINT RightFinger0
                            {
                                OFFSET  -2.044650  -2.323490   3.252850
                                CHANNELS 3 Zrotation Xrotation Yrotation
                                JOINT RightFinger01
                                {
                                    OFFSET  -3.088130   0.000000   0.000000
                                    CHANNELS 3 Zrotation Xrotation Yrotation
                                    JOINT RightFinger02
                                    {
                                        OFFSET  -2.639460   0.000000   0.000000
                                        CHANNELS 3 Zrotation Xrotation Yrotation
                                        End Site
                                        {
                                            OFFSET  -2.582190   0.000000   0.000000
                                        }
                                    }
                                }
                            }
                            JOINT RightFinger1
                            {
                                OFFSET  -8.364480   0.000000   3.252850
                                CHANNELS 3 Zrotation Xrotation Yrotation
                                JOINT RightFinger11
                                {
                                    OFFSET  -4.646930   0.000000   0.000000
                                    CHANNELS 3 Zrotation Xrotation Yrotation
                                    JOINT RightFinger12
                                    {
                                        OFFSET  -2.323470   0.000000   0.000000
                                        CHANNELS 3 Zrotation Xrotation Yrotation
                                        End Site
                                        {
                                            OFFSET  -2.273050   0.000000   0.000000
                                        }
                                    }
                                }
                            }
                            JOINT RightFinger2
                            {
                                OFFSET  -8.364480   0.000000   1.078090
                                CHANNELS 3 Zrotation Xrotation Yrotation
                                JOINT RightFinger21
                                {
                                    OFFSET  -5.111620   0.000000   0.000000
                                    CHANNELS 3 Zrotation Xrotation Yrotation
                                    JOINT RightFinger22
                                    {
                                        OFFSET  -2.788160   0.000000   0.000000
                                        CHANNELS 3 Zrotation Xrotation Yrotation
                                        End Site
                                        {
                                            OFFSET  -2.727660   0.000000   0.000000
                                        }
                                    }
                                }
                            }
                            JOINT RightFinger3
                            {
                                OFFSET  -7.899780   0.000000  -1.078090
                                CHANNELS 3 Zrotation Xrotation Yrotation
                                JOINT RightFinger31
                                {
                                    OFFSET  -4.646930   0.000000   0.000000
                                    CHANNELS 3 Zrotation Xrotation Yrotation
                                    JOINT RightFinger32
                                    {
                                        OFFSET  -2.323470   0.000000   0.000000
                                        CHANNELS 3 Zrotation Xrotation Yrotation
                                        End Site
                                        {
                                            OFFSET  -2.273050   0.000000   0.000000
                                        }
                                    }
                                }
                            }
                            JOINT RightFinger4
                            {
                                OFFSET  -7.435090   0.000000  -3.252850
                                CHANNELS 3 Zrotation Xrotation Yrotation
                                JOINT RightFinger41
                                {
                                    OFFSET  -3.717550   0.000000   0.000000
                                    CHANNELS 3 Zrotation Xrotation Yrotation
                                    JOINT RightFinger42
                                    {
                                        OFFSET  -1.858760   0.000000   0.000000
                                        CHANNELS 3 Zrotation Xrotation Yrotation
                                        End Site
                                        {
                                            OFFSET  -1.818440   0.000000   0.000000
                                        }
                                    }
                                }
                            }
                        }
                    }
                }
            }
        }
    }
    JOINT LeftHip
    {
        OFFSET   9.783030   0.000000   0.000000
        CHANNELS 3 Zrotation Xrotation Yrotation
        JOINT LeftKnee
        {
            OFFSET   0.000063 -41.789100   0.000608
            CHANNELS 3 Zrotation Xrotation Yrotation
            JOINT LeftAnkle
            {
                OFFSET   0.000048 -41.133200  -0.000184
                CHANNELS 3 Zrotation Xrotation Yrotation
                JOINT LeftToe
                {
                    OFFSET   0.000000  -6.358960  14.674500
                    CHANNELS 3 Zrotation Xrotation Yrotation
                    End Site
                    {
                        OFFSET   0.000000   0.000000   3.913200
                    }
                }
            }
        }
    }
    JOINT RightHip
    {
        OFFSET  -9.783030   0.000000   0.000000
        CHANNELS 3 Zrotation Xrotation Yrotation
        JOINT RightKnee
        {
            OFFSET   0.000071 -41.789100   0.001239
            CHANNELS 3 Zrotation Xrotation Yrotation
            JOINT RightAnkle
            {
                OFFSET   0.000037 -41.133200  -0.000166
                CHANNELS 3 Zrotation Xrotation Yrotation
                JOINT RightToe
                {
                    OFFSET   0.000000  -6.358960  14.674500
                    CHANNELS 3 Zrotation Xrotation Yrotation
                    End Site
                    {
                        OFFSET   0.000000   0.000000   3.913200
                    }
                }
            }
        }
    }
}
MOTION
Frames: 4
Frame Time:   0.016667
  0.473396  89.589600   0.717336  -1.665370  -4.618360  -3.030890   0.269686   2.280510   0.100957   0.535985   4.561450   0.191383   1.139410   1.132220  -0.014897   1.870260   2.293450  -1.048700  -2.427430   0.387068   0.948103 -76.571600  18.008100   1.137260  -1.435150  -6.066560 -14.717400  17.453000 -16.463600   4.895680  34.744700  30.907900 -71.896600 -31.163600   0.001771   0.001165 -10.581800   0.002854   0.005140 -30.918400   6.243950 -10.292400 -25.757500  -0.003145   0.012478 -18.030200  -0.002007  -0.000916 -28.418200  -0.474421   0.876701 -35.322400  -0.001231   0.000475 -23.524700  -0.000569  -0.000533 -28.101900  -0.469570   0.879305 -32.708400  -0.003038   0.000000 -21.775100   0.000109  -0.001994 -30.922600  -0.512282   0.855129 -46.389600  -0.002433   0.000556 -30.895500   0.000099  -0.002005   6.748920   1.003550   1.681410  75.027000   8.398560  -4.463210  -1.565630  -4.037980  11.379200 -11.971100  -4.594670   0.625982 -42.188300  40.372900  83.876400   3.561790   0.003228  -0.005040  -3.219090   0.001723  -0.009788  27.099200   7.626190  14.550400  22.969200  -0.002279   0.000000  16.078400   0.002612   0.000157  26.165600   2.764410   5.594360  26.301000   0.002125  -0.003293  17.516500  -0.002899  -0.005364  21.365000   0.382750   0.965194  21.368200   0.004185  -0.003896  14.231300   0.002061   0.001997  27.545200   0.485872   0.918920  41.323600  -0.001478  -0.001858  27.521500  -0.006222  -0.011339   1.123880   7.100760   1.535720   1.401140   0.077200   4.651280  -1.797900  -3.826700   0.391983  -0.000000   0.000000  -0.000000   2.420210   6.277560  -5.074580  -0.776998   1.506940  -0.867518  -0.248955  -4.548550  -0.482706   0.000000   0.000000   0.000000
  0.477429  89.589600   0.712549  -1.666710  -4.623570  -3.046280   0.269703   2.285080   0.103050   0.535931   4.570600   0.195549   1.139400   1.132110  -0.014905   1.870390   2.293450  -1.043530  -2.427430   0.386875   0.948077 -76.571500  18.020400   1.136220  -1.436050  -6.066100 -14.726400  17.461700 -16.482700   4.890000  34.766100  30.905600 -71.869900 -31.149300   0.001768   0.001137 -10.574700   0.002855   0.005140 -30.907800   6.230940 -10.275700 -25.747000  -0.003145   0.012480 -18.022900  -0.002006  -0.000918 -28.417900  -0.483317   0.893184 -35.310900  -0.001235   0.000475 -23.517000  -0.000572  -0.000533 -28.101600  -0.478395   0.895826 -32.708800  -0.003038   0.000000 -21.777300   0.000108  -0.001993 -30.919800  -0.521866   0.871221 -46.385700  -0.002437   0.000556 -30.892800   0.000100  -0.002005   6.748920   1.003420   1.681420  75.014800   8.405450  -4.463280  -1.565420  -4.039040  11.372800 -11.988200  -4.621610   0.626362 -42.150400  40.368800  83.876900   3.598820   0.003224  -0.005039  -3.200580   0.001723  -0.009795  27.130100   7.626560  14.532800  22.993500  -0.002284  -0.000000  16.095400   0.002614   0.000155  26.198200   2.760800   5.584390  26.333100   0.002125  -0.003296  17.537800  -0.002899  -0.005364  21.391500   0.379366   0.961008  21.394600   0.004185  -0.003899  14.248900   0.002061   0.001997  27.577700   0.481531   0.914834  41.372300  -0.001479  -0.001858  27.553900  -0.006221  -0.011341   1.123640   7.101830   1.535720   1.405890   0.092700   4.651250  -1.796850  -3.835640   0.404193   0.000000   0.000000   0.000000   2.421200   6.280370  -5.070380  -0.772138   1.505780  -0.871019  -0.251481  -4.542100  -0.467547   0.000000   0.000000   0.000000
  0.483648  89.589600   0.703793  -1.669160  -4.633790  -3.071930   0.269723   2.293610   0.106783   0.535814   4.587700   0.202983   1.139380   1.132000  -0.014923   1.870370   2.293450  -1.034630  -2.427410   0.386682   0.948039 -76.570800  18.032800   1.133180  -1.437660  -6.065440 -14.742600  17.476900 -16.509900   4.884520  34.787500  30.903300 -71.843300 -31.135000   0.001763   0.001109 -10.567500   0.002856   0.005141 -30.897100   6.217940 -10.259100 -25.736600  -0.003146   0.012484 -18.015600  -0.002005  -0.000923 -28.417600  -0.492212   0.909667 -35.299300  -0.001242   0.000475 -23.509300  -0.000581  -0.000533 -28.101300  -0.487219   0.912347 -32.711600  -0.003040  -0.000000 -21.785900   0.000107  -0.001993 -30.917000  -0.531449   0.887313 -46.381700  -0.002448   0.000555 -30.890200   0.000101  -0.002006   6.748890   1.003290   1.681420  74.995500   8.419070  -4.463420  -1.562330  -4.042720  11.364000 -12.005100  -4.658990   0.626752 -42.095700  40.360500  83.875900   3.657910   0.003213  -0.005032  -3.171040   0.001725  -0.009801  27.175500   7.626970  14.508000  23.029200  -0.002292   0.000000  16.120400   0.002615   0.000145  26.243300   2.753780   5.566030  26.377200   0.002124  -0.003306  17.567200  -0.002901  -0.005366  21.426700   0.372784   0.949856  21.429800   0.004186  -0.003905  14.272300   0.002061   0.001996  27.625100   0.473168   0.904055  41.443200  -0.001480  -0.001859  27.601200  -0.006221  -0.011347   1.123240   7.108730   1.535740   1.413500   0.108199   4.651220  -1.795310  -3.844580   0.423545  -0.000000   0.000000  -0.000000   2.422200   6.283170  -5.066170  -0.763865   1.504610  -0.874519  -0.255443  -4.535660  -0.443240  -0.000000   0.000000  -0.000000
  0.487620  89.589600   0.695023  -1.671630  -4.646220  -3.093700   0.269726   2.302860   0.110602   0.535651   4.606230   0.210600   1.137240   1.132430  -0.014943   1.868290   2.293640  -1.026270  -2.427320   0.386869   0.948022 -76.566000  18.025400   1.127840  -1.439510  -6.065870 -14.758700  17.495000 -16.523100   4.895980  34.767800  30.894800 -71.850800 -31.149300   0.001759   0.001132 -10.574600   0.002853   0.005139 -30.910200   6.224710 -10.263900 -25.747800  -0.003145   0.012484 -18.024800  -0.002006  -0.000931 -28.417700  -0.490640   0.906653 -35.323800  -0.001249   0.000475 -23.525600  -0.000601  -0.000534 -28.105000  -0.485690   0.909314 -32.738300  -0.003044   0.000000 -21.806100   0.000106  -0.001993 -30.929800  -0.529948   0.884254 -46.400900  -0.002463   0.000557 -30.903000   0.000098  -0.002006   6.748540   1.004430   1.681010  74.980900   8.436120  -4.462740  -1.553590  -4.050100  11.360900 -11.996600  -4.673790   0.624446 -42.070300  40.351600  83.871200   3.702670   0.003196  -0.004999  -3.148660   0.001740  -0.009799  27.202900   7.626790  14.496300  23.050700  -0.002295   0.000000  16.135500   0.002607   0.000121  26.260200   2.745310   5.545770  26.393400   0.002136  -0.003325  17.578000  -0.002907  -0.005372  21.437000   0.364548   0.929268  21.440100   0.004187  -0.003913  14.279100   0.002061   0.001997  27.648800   0.462705   0.884336  41.478600  -0.001481  -0.001859  27.624800  -0.006220  -0.011358   1.122250   7.125010   1.540650   1.419260   0.103831   4.651900  -1.795740  -3.843180   0.437591   0.000000   0.000000   0.000000   2.416320   6.277780  -5.084920  -0.756767   1.519520  -0.853413  -0.258421  -4.536010  -0.424632  -0.000000   0.000000   0.000000
